<svg width="2234" height="946" xmlns="http://www.w3.org/2000/svg" xmlns:xlink="http://www.w3.org/1999/xlink" xml:space="preserve" overflow="hidden"><defs><clipPath id="clip0"><rect x="2201" y="617" width="2234" height="946"/></clipPath></defs><g clip-path="url(#clip0)" transform="translate(-2201 -617)"><rect x="2233" y="648" width="2105" height="81.0001" fill="#A5A5A5" fill-opacity="0.501961"/><rect x="2233" y="729" width="81.0002" height="436" fill="#A5A5A5" fill-opacity="0.501961"/><path d="M2391 959.925C2409.65 961.817 2448.16 963.708 2461.22 961.186 2474.29 958.664 2468.64 950.888 2469.38 944.793 2470.11 938.698 2464.88 929.87 2465.61 924.616 2466.34 919.361 2470.42 913.897 2473.76 913.266 2477.11 912.636 2484.53 916.839 2485.68 920.833 2486.83 924.826 2481.71 931.972 2480.66 937.226 2479.62 942.481 2480.24 947.104 2479.41 952.359 2478.57 957.613 2480.03 965.285 2475.65 968.753 2471.26 972.221 2458.82 971.8 2453.07 973.166 2447.33 974.532 2442.83 973.902 2441.16 976.949 2439.49 979.997 2440.32 989.035 2443.04 991.452 2445.76 993.869 2452.03 992.608 2457.46 991.452 2462.9 990.296 2470.94 988.089 2475.65 984.516 2480.35 980.943 2483.59 974.743 2485.68 970.014 2487.77 965.285 2486.93 960.556 2488.19 956.142 2489.44 951.728 2490.8 945.633 2493.2 943.531 2495.61 941.43 2500.73 941.535 2502.61 943.531 2504.49 945.528 2504.8 951.098 2504.49 955.512 2504.17 959.925 2503.34 965.075 2500.73 970.014 2498.11 974.953 2494.87 980.628 2488.81 985.146 2482.75 989.665 2466.97 992.397 2464.36 997.126 2461.75 1001.86 2467.08 1013.63 2473.14 1013.52 2479.2 1013.41 2492.89 1005.64 2500.73 996.496 2508.56 987.353 2517.03 968.858 2520.16 958.664 2523.3 948.471 2523.19 939.748 2519.54 935.335 2515.88 930.921 2502.61 934.599 2498.22 932.182 2493.83 929.765 2490.38 922.829 2493.2 920.833 2496.02 918.836 2508.56 917.785 2515.15 920.202 2521.73 922.619 2530.4 927.873 2532.7 935.335 2535 942.796 2530.93 956.878 2528.94 964.969 2526.96 973.061 2518.6 981.784 2520.79 983.885 2522.98 985.987 2537.72 985.462 2542.11 977.58 2546.5 969.698 2548.59 948.155 2547.12 936.596 2545.66 925.036 2541.48 913.161 2533.33 908.222 2525.18 903.283 2505.22 909.483 2498.22 906.961 2491.22 904.439 2486.41 895.611 2491.32 893.089 2496.23 890.567 2517.97 890.567 2527.69 891.828 2537.41 893.089 2543.68 891.198 2549.63 900.656 2555.59 910.114 2562.69 934.284 2563.43 948.576 2564.16 962.868 2560.08 978.526 2554.02 986.407 2547.96 994.289 2532.81 991.557 2527.06 995.865 2521.31 1000.17 2514.73 1009.53 2519.54 1012.26 2524.34 1014.99 2546.18 1021.4 2555.9 1012.26 2565.62 1003.12 2572.31 968.437 2577.85 957.403 2583.39 946.369 2582.86 947.42 2589.13 946.054 2595.4 944.688 2609.62 948.366 2615.47 949.206L2665 956.142" stroke="#000000" stroke-width="8.02083" stroke-miterlimit="8" fill="none" fill-rule="evenodd"/><path d="M2656 957C2656 951.477 2660.7 947 2666.5 947 2672.3 947 2677 951.477 2677 957 2677 962.523 2672.3 967 2666.5 967 2660.7 967 2656 962.523 2656 957Z" stroke="#000000" stroke-width="8.02083" stroke-miterlimit="8" fill-rule="evenodd"/><path d="M2666 959.925C2684.59 961.817 2722.95 963.708 2735.97 961.186 2748.98 958.664 2743.36 950.888 2744.09 944.793 2744.82 938.698 2739.61 929.87 2740.34 924.616 2741.07 919.361 2745.13 913.897 2748.46 913.266 2751.79 912.636 2759.19 916.839 2760.33 920.833 2761.48 924.826 2756.38 931.972 2755.33 937.226 2754.29 942.481 2754.92 947.104 2754.08 952.359 2753.25 957.613 2754.71 965.285 2750.34 968.753 2745.96 972.221 2733.57 971.8 2727.85 973.166 2722.12 974.532 2717.64 973.902 2715.98 976.949 2714.31 979.997 2715.14 989.035 2717.85 991.452 2720.56 993.869 2726.81 992.608 2732.22 991.452 2737.63 990.296 2745.65 988.089 2750.34 984.516 2755.02 980.943 2758.25 974.743 2760.33 970.014 2762.41 965.285 2761.58 960.556 2762.83 956.142 2764.08 951.728 2765.43 945.633 2767.83 943.531 2770.22 941.43 2775.33 941.535 2777.2 943.531 2779.07 945.528 2779.39 951.098 2779.07 955.512 2778.76 959.925 2777.93 965.075 2775.33 970.014 2772.72 974.953 2769.49 980.628 2763.46 985.146 2757.42 989.665 2741.69 992.397 2739.09 997.126 2736.49 1001.86 2741.8 1013.63 2747.84 1013.52 2753.88 1013.41 2767.52 1005.64 2775.33 996.496 2783.13 987.353 2791.57 968.858 2794.69 958.664 2797.81 948.471 2797.71 939.748 2794.07 935.335 2790.42 930.921 2777.2 934.599 2772.83 932.182 2768.45 929.765 2765.02 922.829 2767.83 920.833 2770.64 918.836 2783.13 917.785 2789.69 920.202 2796.25 922.619 2804.9 927.873 2807.19 935.335 2809.48 942.796 2805.42 956.878 2803.44 964.969 2801.46 973.061 2793.13 981.784 2795.32 983.885 2797.5 985.987 2812.18 985.462 2816.56 977.58 2820.93 969.698 2823.01 948.155 2821.55 936.596 2820.1 925.036 2815.93 913.161 2807.81 908.222 2799.69 903.283 2779.8 909.483 2772.83 906.961 2765.85 904.439 2761.06 895.611 2765.95 893.089 2770.85 890.567 2792.5 890.567 2802.19 891.828 2811.87 893.089 2818.12 891.198 2824.05 900.656 2829.99 910.114 2837.07 934.284 2837.8 948.576 2838.53 962.868 2834.46 978.526 2828.43 986.407 2822.39 994.289 2807.29 991.557 2801.56 995.865 2795.84 1000.17 2789.28 1009.53 2794.07 1012.26 2798.86 1014.99 2820.62 1021.4 2830.3 1012.26 2839.98 1003.12 2846.65 968.437 2852.17 957.403 2857.68 946.369 2857.16 947.42 2863.41 946.054 2869.66 944.688 2883.82 948.366 2889.65 949.206L2939 956.142" stroke="#000000" stroke-width="8.02083" stroke-miterlimit="8" fill="none" fill-rule="evenodd"/><path d="M2931 957C2931 951.477 2935.48 947 2941 947 2946.52 947 2951 951.477 2951 957 2951 962.523 2946.52 967 2941 967 2935.48 967 2931 962.523 2931 957Z" stroke="#000000" stroke-width="8.02083" stroke-miterlimit="8" fill-rule="evenodd"/><path d="M2942 959.925C2960.65 961.817 2999.16 963.708 3012.22 961.186 3025.29 958.664 3019.64 950.888 3020.38 944.793 3021.11 938.698 3015.88 929.87 3016.61 924.616 3017.34 919.361 3021.42 913.897 3024.76 913.266 3028.11 912.636 3035.53 916.839 3036.68 920.833 3037.83 924.826 3032.71 931.972 3031.66 937.226 3030.62 942.481 3031.24 947.104 3030.41 952.359 3029.57 957.613 3031.03 965.285 3026.65 968.753 3022.26 972.221 3009.82 971.8 3004.07 973.166 2998.33 974.532 2993.83 973.902 2992.16 976.949 2990.49 979.997 2991.32 989.035 2994.04 991.452 2996.76 993.869 3003.03 992.608 3008.46 991.452 3013.9 990.296 3021.94 988.089 3026.65 984.516 3031.35 980.943 3034.59 974.743 3036.68 970.014 3038.77 965.285 3037.93 960.556 3039.19 956.142 3040.44 951.728 3041.8 945.633 3044.2 943.531 3046.61 941.43 3051.73 941.535 3053.61 943.531 3055.49 945.528 3055.8 951.098 3055.49 955.512 3055.17 959.925 3054.34 965.075 3051.73 970.014 3049.11 974.953 3045.87 980.628 3039.81 985.146 3033.75 989.665 3017.97 992.397 3015.36 997.126 3012.75 1001.86 3018.08 1013.63 3024.14 1013.52 3030.2 1013.41 3043.89 1005.64 3051.73 996.496 3059.56 987.353 3068.03 968.858 3071.16 958.664 3074.3 948.471 3074.19 939.748 3070.54 935.335 3066.88 930.921 3053.61 934.599 3049.22 932.182 3044.83 929.765 3041.38 922.829 3044.2 920.833 3047.02 918.836 3059.56 917.785 3066.15 920.202 3072.73 922.619 3081.4 927.873 3083.7 935.335 3086 942.796 3081.93 956.878 3079.94 964.969 3077.96 973.061 3069.6 981.784 3071.79 983.885 3073.98 985.987 3088.72 985.462 3093.11 977.58 3097.5 969.698 3099.59 948.155 3098.12 936.596 3096.66 925.036 3092.48 913.161 3084.33 908.222 3076.18 903.283 3056.22 909.483 3049.22 906.961 3042.22 904.439 3037.41 895.611 3042.32 893.089 3047.23 890.567 3068.97 890.567 3078.69 891.828 3088.41 893.089 3094.68 891.198 3100.63 900.656 3106.59 910.114 3113.69 934.284 3114.43 948.576 3115.16 962.868 3111.08 978.526 3105.02 986.407 3098.96 994.289 3083.81 991.557 3078.06 995.865 3072.31 1000.17 3065.73 1009.53 3070.54 1012.26 3075.34 1014.99 3097.18 1021.4 3106.9 1012.26 3116.62 1003.12 3123.31 968.437 3128.85 957.403 3134.39 946.369 3133.86 947.42 3140.13 946.054 3146.4 944.688 3160.62 948.366 3166.47 949.206L3216 956.142" stroke="#000000" stroke-width="8.02083" stroke-miterlimit="8" fill="none" fill-rule="evenodd"/><path d="M3207 957C3207 951.477 3211.7 947 3217.5 947 3223.3 947 3228 951.477 3228 957 3228 962.523 3223.3 967 3217.5 967 3211.7 967 3207 962.523 3207 957Z" stroke="#000000" stroke-width="8.02083" stroke-miterlimit="8" fill-rule="evenodd"/><path d="M3608 959.925C3626.65 961.817 3665.16 963.708 3678.22 961.186 3691.29 958.664 3685.64 950.888 3686.38 944.793 3687.11 938.698 3681.88 929.87 3682.61 924.616 3683.34 919.361 3687.42 913.897 3690.76 913.266 3694.11 912.636 3701.53 916.839 3702.68 920.833 3703.83 924.826 3698.71 931.972 3697.66 937.226 3696.62 942.481 3697.24 947.104 3696.41 952.359 3695.57 957.613 3697.03 965.285 3692.65 968.753 3688.26 972.221 3675.82 971.8 3670.07 973.166 3664.33 974.532 3659.83 973.902 3658.16 976.949 3656.49 979.997 3657.32 989.035 3660.04 991.452 3662.76 993.869 3669.03 992.608 3674.46 991.452 3679.9 990.296 3687.94 988.089 3692.65 984.516 3697.35 980.943 3700.59 974.743 3702.68 970.014 3704.77 965.285 3703.93 960.556 3705.19 956.142 3706.44 951.728 3707.8 945.633 3710.2 943.531 3712.6 941.43 3717.73 941.535 3719.61 943.531 3721.49 945.528 3721.8 951.098 3721.49 955.512 3721.17 959.925 3720.34 965.075 3717.73 970.014 3715.11 974.953 3711.87 980.628 3705.81 985.146 3699.75 989.665 3683.97 992.397 3681.36 997.126 3678.75 1001.86 3684.08 1013.63 3690.14 1013.52 3696.2 1013.41 3709.89 1005.64 3717.73 996.496 3725.56 987.353 3734.03 968.858 3737.16 958.664 3740.3 948.471 3740.19 939.748 3736.54 935.335 3732.88 930.921 3719.61 934.599 3715.22 932.182 3710.83 929.765 3707.38 922.829 3710.2 920.833 3713.02 918.836 3725.56 917.785 3732.15 920.202 3738.73 922.619 3747.4 927.873 3749.7 935.335 3752 942.796 3747.93 956.878 3745.94 964.969 3743.96 973.061 3735.59 981.784 3737.79 983.885 3739.98 985.987 3754.72 985.462 3759.11 977.58 3763.5 969.698 3765.59 948.155 3764.12 936.596 3762.66 925.036 3758.48 913.161 3750.33 908.222 3742.18 903.283 3722.22 909.483 3715.22 906.961 3708.22 904.439 3703.41 895.611 3708.32 893.089 3713.23 890.567 3734.97 890.567 3744.69 891.828 3754.41 893.089 3760.68 891.198 3766.63 900.656 3772.59 910.114 3779.69 934.284 3780.43 948.576 3781.16 962.868 3777.08 978.526 3771.02 986.407 3764.96 994.289 3749.81 991.557 3744.06 995.865 3738.31 1000.17 3731.73 1009.53 3736.54 1012.26 3741.34 1014.99 3763.18 1021.4 3772.9 1012.26 3782.62 1003.12 3789.31 968.437 3794.85 957.403 3800.39 946.369 3799.86 947.42 3806.13 946.054 3812.4 944.688 3826.61 948.366 3832.47 949.206L3882 956.142" stroke="#000000" stroke-width="8.02083" stroke-miterlimit="8" fill="none" fill-rule="evenodd"/><path d="M3228 957 3596.97 957" stroke="#000000" stroke-width="8.02083" stroke-miterlimit="8" fill="none" fill-rule="evenodd"/><path d="M3597 959C3597 953.477 3601.48 949 3607 949 3612.52 949 3617 953.477 3617 959 3617 964.523 3612.52 969 3607 969 3601.48 969 3597 964.523 3597 959Z" stroke="#000000" stroke-width="8.02083" stroke-miterlimit="8" fill-rule="evenodd"/><path d="M3882 955C3882 949.477 3886.7 945 3892.5 945 3898.3 945 3903 949.477 3903 955 3903 960.523 3898.3 965 3892.5 965 3886.7 965 3882 960.523 3882 955Z" stroke="#000000" stroke-width="8.02083" stroke-miterlimit="8" fill-rule="evenodd"/><path d="M2313 960 2391.05 960" stroke="#000000" stroke-width="8.02083" stroke-miterlimit="8" fill="none" fill-rule="evenodd"/><path d="M2391 960 2393.53 1207.79" stroke="#000000" stroke-width="8.02083" stroke-miterlimit="8" fill="none" fill-rule="evenodd"/><path d="M2391 1208 3121.54 1208" stroke="#000000" stroke-width="8.02083" stroke-miterlimit="8" fill="none" fill-rule="evenodd"/><path d="M3892 960 3893.8 1207.58" stroke="#000000" stroke-width="8.02083" stroke-miterlimit="8" fill="none" fill-rule="evenodd"/><path d="M3163 1208 3893.54 1208" stroke="#000000" stroke-width="8.02083" stroke-miterlimit="8" fill="none" fill-rule="evenodd"/><path d="M3123 1179 3123 1236.34" stroke="#000000" stroke-width="8.02083" stroke-miterlimit="8" fill="none" fill-rule="evenodd"/><path d="M3163 1155 3163 1260.21" stroke="#000000" stroke-width="8.02083" stroke-miterlimit="8" fill="none" fill-rule="evenodd"/><path d="M0 0 79.2783 0.000360892" stroke="#000000" stroke-width="8.02083" stroke-miterlimit="8" fill="none" fill-rule="evenodd" transform="matrix(-1 0 0 1 3163.28 1155)"/><path d="M0 0 79.2783 0.000360892" stroke="#000000" stroke-width="8.02083" stroke-miterlimit="8" fill="none" fill-rule="evenodd" transform="matrix(-1 0 0 1 3163.28 1260)"/><path d="M0 0 0.000360892 435.735" stroke="#000000" stroke-width="8.02083" stroke-miterlimit="8" fill="none" fill-rule="evenodd" transform="matrix(-1 0 0 1 2312 729)"/><path d="M0 0 2028.13 0.000360892" stroke="#000000" stroke-width="8.02083" stroke-miterlimit="8" fill="none" fill-rule="evenodd" transform="matrix(1 0 0 -1 2310 729)"/><path d="M3893 841 3893 952.385" stroke="#000000" stroke-width="8.02083" stroke-miterlimit="8" fill="none" fill-rule="evenodd"/><path d="M3892 730 3892 841.385" stroke="#000000" stroke-width="8.02083" stroke-miterlimit="8" stroke-dasharray="32.0833 24.0625" fill="none" fill-rule="evenodd"/><path d="M3883 731.5C3883 725.701 3887.48 721 3893 721 3898.52 721 3903 725.701 3903 731.5 3903 737.299 3898.52 742 3893 742 3887.48 742 3883 737.299 3883 731.5Z" stroke="#000000" stroke-width="8.02083" stroke-miterlimit="8" fill="#FFFFFF" fill-rule="evenodd"/><path d="M3815.49 769.054 3894.26 847.814" stroke="#000000" stroke-width="8.02083" stroke-miterlimit="8" fill-rule="evenodd"/><path d="M3809.17 775.931C3805.21 771.969 3805.21 765.542 3809.18 761.577 3813.14 757.612 3819.57 757.61 3823.53 761.573 3827.49 765.535 3827.49 771.961 3823.53 775.926 3819.56 779.891 3813.14 779.894 3809.17 775.931Z" stroke="#000000" stroke-width="8.02083" stroke-miterlimit="8" fill-rule="evenodd"/><text font-family="Arial,Arial_MSFontService,sans-serif" font-weight="400" font-size="73" transform="matrix(1 0 0 1 2849.5 1112)">Proximal Ig chain</text><text font-family="Arial,Arial_MSFontService,sans-serif" font-weight="400" font-size="64" transform="matrix(1 0 0 1 3941.53 810)">Ca</text><text font-family="Arial,Arial_MSFontService,sans-serif" font-weight="400" font-size="43" transform="matrix(1 0 0 1 4023.46 791)">2+</text><text font-family="Arial,Arial_MSFontService,sans-serif" font-weight="400" font-size="64" transform="matrix(1 0 0 1 4072.73 810)">-</text><text font-family="Arial,Arial_MSFontService,sans-serif" font-weight="400" font-size="64" transform="matrix(1 0 0 1 4093.93 810)">dependent</text><text font-family="Arial,Arial_MSFontService,sans-serif" font-weight="400" font-size="64" transform="matrix(1 0 0 1 3941.53 887)">association</text><path d="M0 0 149.966 0.000360892" stroke="#000000" stroke-width="8.02083" stroke-miterlimit="8" fill="none" fill-rule="evenodd" transform="matrix(1 0 0 -1 3894 953)"/><path d="M0 0 12.4681 24.9366" stroke="#000000" stroke-width="8.02083" stroke-miterlimit="8" fill="none" fill-rule="evenodd" transform="matrix(1 0 0 -1 4045 954.936)"/><path d="M4078.89 980.873 4057 931" stroke="#000000" stroke-width="8.02083" stroke-miterlimit="8" fill="none" fill-rule="evenodd"/><path d="M0 0 24.9366 49.8728" stroke="#000000" stroke-width="8.02083" stroke-miterlimit="8" fill="none" fill-rule="evenodd" transform="matrix(-1 0 0 1 4102.94 931)"/><path d="M4127.94 980.873 4103 931" stroke="#000000" stroke-width="8.02083" stroke-miterlimit="8" fill="none" fill-rule="evenodd"/><path d="M0 0 24.9366 49.8728" stroke="#000000" stroke-width="8.02083" stroke-miterlimit="8" fill="none" fill-rule="evenodd" transform="matrix(-1 0 0 1 4151.94 931)"/><path d="M4176.94 980.873 4152 931" stroke="#000000" stroke-width="8.02083" stroke-miterlimit="8" fill="none" fill-rule="evenodd"/><path d="M0 0 12.4681 24.9366" stroke="#000000" stroke-width="8.02083" stroke-miterlimit="8" fill="none" fill-rule="evenodd" transform="matrix(1 0 0 -1 4177 980.937)"/><path d="M0 0 149.966 0.000360892" stroke="#000000" stroke-width="8.02083" stroke-miterlimit="8" fill="none" fill-rule="evenodd" transform="matrix(1 0 0 -1 4188 953)"/><text font-family="Arial,Arial_MSFontService,sans-serif" font-weight="400" font-size="73" transform="matrix(1 0 0 1 3938.74 1109)">Distal </text><text font-family="Arial,Arial_MSFontService,sans-serif" font-weight="400" font-size="73" transform="matrix(1 0 0 1 4142.13 1109)">Ig </text><text font-family="Arial,Arial_MSFontService,sans-serif" font-weight="400" font-size="73" transform="matrix(1 0 0 1 3938.74 1197)">chain</text><path d="M2401.25 1338.99 3885.64 1338.99 3885.64 1347.01 2401.25 1347.01ZM2440.56 1369.42 2393 1343 2440.56 1316.58C2442.5 1315.5 2444.94 1316.2 2446.02 1318.14 2447.09 1320.07 2446.4 1322.51 2444.46 1323.59L2403.21 1346.51 2403.21 1339.49 2444.46 1362.41C2446.4 1363.49 2447.09 1365.93 2446.02 1367.86 2444.94 1369.8 2442.5 1370.5 2440.56 1369.42ZM3846.34 1316.58 3893.9 1343 3846.34 1369.42C3844.41 1370.5 3841.97 1369.8 3840.89 1367.86 3839.82 1365.93 3840.51 1363.49 3842.45 1362.41L3883.7 1339.49 3883.7 1346.51 3842.45 1323.59C3840.51 1322.51 3839.82 1320.07 3840.89 1318.14 3841.97 1316.2 3844.41 1315.5 3846.34 1316.58Z"/><path d="M3899.26 1337.99 4335.27 1337.99 4335.27 1346.01 3899.26 1346.01ZM3938.56 1368.42 3891 1342 3938.56 1315.58C3940.5 1314.5 3942.94 1315.2 3944.02 1317.14 3945.09 1319.07 3944.4 1321.51 3942.46 1322.59L3901.21 1345.51 3901.21 1338.49 3942.46 1361.41C3944.4 1362.49 3945.09 1364.93 3944.02 1366.86 3942.94 1368.8 3940.5 1369.5 3938.56 1368.42ZM4295.97 1315.58 4343.53 1342 4295.97 1368.42C4294.03 1369.5 4291.59 1368.8 4290.51 1366.86 4289.44 1364.93 4290.14 1362.49 4292.07 1361.41L4333.32 1338.49 4333.32 1345.51 4292.07 1322.59C4290.14 1321.51 4289.44 1319.07 4290.51 1317.14 4291.59 1315.2 4294.03 1314.5 4295.97 1315.58Z"/><text font-family="Arial,Arial_MSFontService,sans-serif" font-style="italic" font-weight="400" font-size="64" transform="matrix(1 0 0 1 2858.47 1432)">s</text><text font-family="Arial,Arial_MSFontService,sans-serif" font-weight="400" font-size="64" transform="matrix(1 0 0 1 2890.55 1432)">, strain in </text><text font-family="Arial,Arial_MSFontService,sans-serif" font-weight="400" font-size="64" transform="matrix(1 0 0 1 3167.84 1432)">proximal </text><text font-family="Arial,Arial_MSFontService,sans-serif" font-weight="400" font-size="64" transform="matrix(1 0 0 1 2858.47 1509)">chain</text><text font-family="Arial,Arial_MSFontService,sans-serif" font-style="italic" font-weight="400" font-size="64" transform="matrix(1 0 0 1 4045.75 1432)">L</text><text font-family="Arial,Arial_MSFontService,sans-serif" font-style="italic" font-weight="400" font-size="64" transform="matrix(1 0 0 1 4099.03 1432)">–</text><text font-family="Arial,Arial_MSFontService,sans-serif" font-style="italic" font-weight="400" font-size="64" transform="matrix(1 0 0 1 4045.75 1509)">s</text><text font-family="Arial,Arial_MSFontService,sans-serif" font-weight="400" font-size="73" transform="matrix(1 0 0 1 3181.46 710)">actin</text><text font-family="Arial,Arial_MSFontService,sans-serif" font-weight="400" font-size="73" transform="matrix(-1.83697e-16 -1 1 -1.83697e-16 2294.3 976)">Z disk</text><text font-family="Arial,Arial_MSFontService,sans-serif" font-weight="400" font-size="64" transform="matrix(1 0 0 1 2624.17 873)">folded states</text><text font-family="Arial,Arial_MSFontService,sans-serif" font-weight="400" font-size="64" transform="matrix(1 0 0 1 3218.2 873)">unfolded state</text><text font-family="Arial,Arial_MSFontService,sans-serif" font-weight="400" font-size="64" transform="matrix(1 0 0 1 3196.72 1290)">Dashpot </text><text font-family="Arial,Arial_MSFontService,sans-serif" font-weight="400" font-size="64" transform="matrix(1 0 0 1 3196.72 1367)">viscosity</text></g></svg>