<svg width="1457" height="810" xmlns="http://www.w3.org/2000/svg" xmlns:xlink="http://www.w3.org/1999/xlink" xml:space="preserve" overflow="hidden"><defs><clipPath id="clip0"><rect x="2362" y="1607" width="1457" height="810"/></clipPath></defs><g clip-path="url(#clip0)" transform="translate(-2362 -1607)"><path d="M2507.5 1607.5 2507.5 2202.93" stroke="#000000" stroke-width="4.58333" stroke-miterlimit="8" fill="none" fill-rule="evenodd"/><path d="M2507.5 2202.5 3816.27 2202.5" stroke="#000000" stroke-width="4.58333" stroke-miterlimit="8" fill="none" fill-rule="evenodd"/><path d="M0 0 636.578 552.391" stroke="#4472C4" stroke-width="2.29167" stroke-miterlimit="8" fill="none" fill-rule="evenodd" transform="matrix(1 0 0 -1 2579 2202.39)"/><path d="M0 0 636.578 552.391" stroke="#4472C4" stroke-width="2.29167" stroke-miterlimit="8" fill="none" fill-rule="evenodd" transform="matrix(1 0 0 -1 2830 2202.39)"/><path d="M0 0 636.578 552.391" stroke="#4472C4" stroke-width="2.29167" stroke-miterlimit="8" fill="none" fill-rule="evenodd" transform="matrix(1 0 0 -1 3081 2202.39)"/><text font-family="Calibri,Calibri_MSFontService,sans-serif" font-weight="400" font-size="110" transform="matrix(1 0 0 1 2428.29 1952)">U</text><text font-family="Calibri,Calibri_MSFontService,sans-serif" font-weight="400" font-size="110" transform="matrix(1 0 0 1 2838.5 2322)">L</text><text font-family="Calibri,Calibri_MSFontService,sans-serif" font-weight="400" font-size="83" transform="matrix(0.751957 -0.659211 0.659211 0.751957 2694.93 2029)">N =</text><text font-family="Calibri,Calibri_MSFontService,sans-serif" font-weight="400" font-size="83" transform="matrix(0.751957 -0.659211 0.659211 0.751957 2794.45 1942)">0</text><text font-family="Calibri,Calibri_MSFontService,sans-serif" font-weight="400" font-size="83" transform="matrix(0.77378 -0.633454 0.633454 0.77378 2904.97 2105)">N =</text><text font-family="Calibri,Calibri_MSFontService,sans-serif" font-weight="400" font-size="83" transform="matrix(0.77378 -0.633454 0.633454 0.77378 3007.38 2021)">1</text><path d="M3089.92 1775.85 3301.24 1775.85 3301.24 1778.15 3089.92 1778.15ZM3094.5 1799.92 3067 1777 3094.5 1754.08ZM3296.65 1754.08 3324.15 1777 3296.65 1799.92Z" fill="#4472C4"/><path d="M3208.11 1717.52C3203.93 1719.3 3200.58 1722.31 3198.08 1726.54 3195.58 1730.76 3194.33 1735.51 3194.33 1740.78 3194.33 1747.08 3197.1 1750.22 3202.64 1750.22 3204.83 1750.22 3206.79 1749.49 3208.52 1748.04 3210.25 1746.58 3211.61 1744.53 3212.59 1741.9 3213.58 1739.26 3214.07 1736.47 3214.07 1733.53 3214.07 1730.34 3213.62 1727.49 3212.73 1725 3211.84 1722.5 3210.3 1720 3208.11 1717.52ZM3240.24 1713.34C3241.97 1713.34 3243.33 1713.92 3244.33 1715.09 3245.33 1716.25 3245.83 1717.82 3245.83 1719.79 3245.83 1721.92 3245.41 1724.58 3244.58 1727.77L3242.79 1734.78C3242.33 1736.57 3242 1737.96 3241.8 1738.96 3241.6 1739.96 3241.45 1740.82 3241.35 1741.55 3241.26 1742.28 3241.21 1742.89 3241.21 1743.37 3241.21 1745.24 3241.52 1746.58 3242.14 1747.41 3242.76 1748.23 3243.78 1748.64 3245.18 1748.64 3246.32 1748.64 3247.54 1748.19 3248.85 1747.29 3250.16 1746.38 3251.55 1745.02 3253.03 1743.19 3254.5 1741.37 3255.68 1739.6 3256.57 1737.88 3257.46 1736.17 3258.19 1734.05 3258.76 1731.54L3262.61 1713.99 3269.62 1713.99 3263.7 1739.69C3263.11 1742.28 3262.81 1744.28 3262.81 1745.68 3262.81 1746.77 3262.99 1747.55 3263.34 1748.04 3263.69 1748.52 3264.24 1748.76 3265 1748.76 3265.81 1748.76 3266.68 1748.43 3267.59 1747.77 3268.51 1747.11 3269.81 1745.85 3271.49 1743.98L3273.8 1746.25C3271.34 1748.87 3269.24 1750.72 3267.51 1751.8 3265.78 1752.89 3263.95 1753.43 3262 1753.43 3260.33 1753.43 3258.99 1752.87 3257.99 1751.76 3256.99 1750.66 3256.49 1749.18 3256.49 1747.35 3256.49 1745.89 3256.81 1744.29 3257.46 1742.56L3256.98 1742.4C3254.3 1746.16 3251.77 1748.93 3249.38 1750.71 3246.99 1752.49 3244.53 1753.38 3242.02 1753.38 3239.51 1753.38 3237.58 1752.66 3236.23 1751.22 3234.88 1749.77 3234.2 1747.77 3234.2 1745.2 3234.2 1743.5 3234.59 1741.08 3235.38 1737.94L3238.01 1727.33C3238.74 1724.38 3239.1 1722.3 3239.1 1721.08 3239.1 1720 3238.93 1719.22 3238.58 1718.73 3238.23 1718.25 3237.67 1718 3236.92 1718 3236.08 1718 3235.19 1718.35 3234.26 1719.04 3233.33 1719.73 3232.05 1720.98 3230.43 1722.79L3228.12 1720.52C3230.42 1718.19 3232.15 1716.6 3233.31 1715.73 3234.47 1714.87 3235.58 1714.26 3236.65 1713.89 3237.72 1713.53 3238.91 1713.34 3240.24 1713.34ZM3212.29 1694.58C3214.64 1694.58 3216.98 1694.99 3219.32 1695.82 3221.66 1696.64 3224.27 1698.09 3227.16 1700.17L3225.78 1706.66 3222.05 1706.66C3221.11 1703.68 3219.78 1701.46 3218.06 1699.99 3216.35 1698.52 3214.29 1697.78 3211.88 1697.78 3210.07 1697.78 3208.63 1698.25 3207.57 1699.18 3206.5 1700.11 3205.97 1701.32 3205.97 1702.81 3205.97 1703.59 3206.14 1704.37 3206.49 1705.16 3206.84 1705.94 3207.51 1706.99 3208.48 1708.3 3209.45 1709.61 3210.95 1711.45 3212.98 1713.83 3215.44 1716.78 3217.22 1719.19 3218.33 1721.08 3219.43 1722.98 3220.24 1724.89 3220.74 1726.82 3221.24 1728.75 3221.49 1730.92 3221.49 1733.32 3221.49 1736.67 3220.7 1739.94 3219.12 1743.13 3217.54 1746.32 3215.27 1748.83 3212.33 1750.67 3209.38 1752.51 3205.98 1753.43 3202.12 1753.43 3198.68 1753.43 3195.85 1752.86 3193.6 1751.72 3191.36 1750.59 3189.73 1749.05 3188.72 1747.1 3187.71 1745.16 3187.2 1742.92 3187.2 1740.38 3187.2 1734.65 3188.8 1729.63 3192 1725.32 3195.21 1721.01 3199.94 1717.55 3206.21 1714.92 3204.07 1712.52 3202.51 1710.44 3201.53 1708.68 3200.54 1706.93 3200.05 1705.27 3200.05 1703.7 3200.05 1702 3200.52 1700.46 3201.47 1699.08 3202.41 1697.7 3203.82 1696.61 3205.68 1695.8 3207.55 1694.98 3209.75 1694.58 3212.29 1694.58Z" fill-rule="evenodd"/><text fill="#000000" fill-opacity="0" font-family="Arial,Arial_MSFontService,sans-serif" font-size="58.8457" x="3187.2" y="1746.07">𝛿𝑢</text></g></svg>